<?xml version="1.0" encoding="UTF-8"?>
<!DOCTYPE svg PUBLIC "-//W3C//DTD SVG 1.1//EN" "http://www.w3.org/Graphics/SVG/1.1/DTD/svg11.dtd">
<!-- Creator: CorelDRAW X8 -->
<svg xmlns="http://www.w3.org/2000/svg" xml:space="preserve" width="6.7186mm" height="7.2241mm" version="1.1" style="shape-rendering:geometricPrecision; text-rendering:geometricPrecision; image-rendering:optimizeQuality; fill-rule:evenodd; clip-rule:evenodd"
viewBox="0 0 771 829"
 xmlns:xlink="http://www.w3.org/1999/xlink">
 <defs>
  <style type="text/css">
   <![CDATA[
    .fil0 {fill:#D59710}
   ]]>
  </style>
 </defs>
 <g id="Layer_x0020_1">
  <metadata id="CorelCorpID_0Corel-Layer"/>
  <g id="_1748647293888">
   <path class="fil0" d="M463 150c-2,0 -3,0 -5,1 -2,0 -9,0 -13,0 -1,1 0,1 -4,3 -3,0 -5,0 -8,0 -3,0 -6,0 -8,1 0,0 1,0 0,0 -4,3 -15,1 -18,3 -2,0 -1,1 -5,1 -6,2 -6,2 -12,2 -4,0 -3,1 -7,1 -9,3 -12,0 -16,3 -10,4 -15,0 -23,4 -4,2 -10,-2 -19,2 -5,3 -11,0 -15,2 0,0 -1,1 -1,1 0,0 0,0 0,0l-2 0c0,0 0,0 0,0l-1 1c-3,0 -5,0 -8,0 -11,0 -9,3 -15,3 -2,1 -9,0 -12,1l-4 2c1,0 1,0 1,0 -20,0 -8,0 -20,2l0 2c0,0 0,0 0,0 -3,0 -3,0 -4,0 -4,0 -8,-2 -11,0 -1,1 -1,1 -4,1l0 2c-4,0 -12,-2 -15,0 -5,2 -4,2 -12,2 -2,0 -5,0 -6,0 -4,3 0,2 -6,3 -5,1 -8,0 -13,0 -2,1 0,1 -2,1 0,0 0,0 0,2l-1 0c-5,0 -8,1 -13,1 0,4 0,3 -2,5 -1,2 0,0 0,3l-3 4c0,0 0,0 0,0 -1,4 -2,7 -4,11 0,3 -2,5 -2,8 0,3 0,3 -2,5 0,2 0,0 0,2 -1,4 -1,4 -1,8 0,4 -1,5 -1,8 -2,4 -2,3 -2,9 0,3 0,7 0,10 0,2 -1,2 -1,8 0,3 0,5 0,9 0,4 1,8 1,18 0,8 0,5 2,9 0,4 1,6 1,7 0,5 0,4 1,9 0,2 0,2 2,3 1,4 -2,2 2,10l0 2c2,7 6,10 6,15l4 7c0,4 1,4 3,7 1,2 1,2 2,5 0,1 0,1 2,3l4 5c0,1 0,1 1,4 1,1 0,0 1,1l3 5c0,0 0,0 0,0l19 22c1,2 0,2 1,2 2,1 0,1 2,1l2 3c2,1 0,1 0,1 2,0 2,2 3,2l0 1c3,3 12,11 16,12 2,1 6,5 8,7l8 5c2,2 2,0 3,2 1,0 1,1 3,1 1,1 0,0 1,1 3,0 3,2 4,3l3 0c0,0 0,0 0,0 1,1 0,1 3,3 2,1 2,0 5,1 0,1 0,1 1,1 2,0 3,0 4,2 2,0 2,0 3,1 1,1 4,1 7,3 0,0 0,0 0,0l1 0c3,1 0,1 6,1 2,0 1,0 2,1 0,0 0,0 0,0l2 2c0,0 0,0 1,0 3,1 5,0 11,2 0,2 -3,0 0,0 4,2 8,0 11,2 0,0 0,0 0,0l6 3c6,0 14,-2 19,0 4,1 16,0 19,0 7,0 15,0 22,0 2,-5 9,-3 13,-5 0,0 1,2 0,0 0,-1 0,2 0,0 5,0 3,-1 7,-2 2,0 4,0 5,0 0,0 0,0 0,0 0,0 0,0 0,0 0,0 0,-2 0,-2 0,0 2,0 2,0 0,0 0,0 0,0l2 -1c7,-1 3,1 8,-3 2,0 0,0 2,0 6,-1 5,-2 8,-2 0,-2 1,0 2,-2 0,0 2,-1 2,-1 3,-1 4,0 7,-3l4 -1c2,-1 0,-1 5,-4l1 0c2,-1 3,-1 8,-6 2,-1 3,-1 2,-2 2,1 4,-2 7,-3l13 -11c5,-4 9,-8 14,-12l10 -13c0,0 0,0 0,0 0,0 0,0 0,0 3,-3 7,-6 8,-10 0,-1 0,0 2,-1l13 -24c0,0 2,0 2,0l0 -2c2,-5 2,-4 4,-11 1,-1 1,-1 2,-4 0,-4 0,-2 3,-5l1 -5c0,-3 -1,-2 0,-3 2,-1 0,1 2,-1 0,-2 1,-6 1,-7 0,-3 1,-1 1,-4 0,-2 0,-3 0,-4l3 -8c3,-6 0,-7 1,-12 2,-4 0,-10 3,-18 0,-3 0,-5 0,-8 0,-1 0,-4 0,-5 0,-3 -1,-5 -1,-7 -2,-3 -2,-10 -2,-12 0,-2 0,0 0,0l-1 0c1,-3 1,-7 0,-10 0,0 -1,-1 -1,-1l0 -6c-2,-4 0,-5 -2,-8l-1 -4c-1,-6 -3,-5 -4,-12 -1,-4 -1,-2 -1,-4l-2 0c0,-3 0,-4 0,-7l-2 -4c0,-1 0,0 0,-1 0,0 -2,0 -2,-1l-20 -35c-1,-3 -4,-6 -7,-8l-9 -11c-2,0 -2,0 -3,0 -3,0 3,-2 -1,0 -2,1 0,1 -2,1 -10,3 -16,-1 -18,3 0,0 0,0 0,0l0 0z"/>
   <path class="fil0" d="M206 523c0,3 0,3 0,4 0,2 0,2 -1,2l-3 5c-2,3 -5,4 -8,5l-5 3c0,1 0,1 0,1 -2,0 0,0 -2,0l-14 11c-2,0 -2,0 -2,0 0,0 0,2 0,2l-5 2c-3,4 -3,3 -7,7l-15 15c-1,1 -1,0 -2,1l-6 6c0,0 0,0 0,0 -4,4 -6,6 -8,10 -1,2 -1,0 -1,2l-3 2c-1,2 -1,2 -1,2 -6,5 -7,9 -10,12 -1,1 0,0 -1,1l-9 15c0,0 -2,1 -2,1l-4 8c-1,2 -1,2 -1,3l-3 6c-1,1 -1,2 -1,4 -2,1 0,0 -2,1 -1,0 0,-1 -1,0 -1,3 -1,3 -1,5 -3,0 -2,3 -4,6 0,0 0,1 -2,2l-1 3c0,1 0,0 0,1 -1,2 -1,3 -1,6l-3 1c0,6 -3,6 -3,8 0,3 0,0 0,3l0 0c-1,0 -1,1 -1,1 -2,3 -2,0 -2,6 -1,4 -2,1 -2,8 0,5 -2,3 -2,1 0,3 -1,2 -1,4 -1,2 -1,3 -1,6 -2,2 1,-3 0,0 0,0 0,0 -2,1 -1,3 0,5 -1,7 -1,1 -1,2 -3,5 0,1 0,4 -1,6 0,0 0,0 0,0l-1 9c-2,3 -2,4 -2,5 0,3 -1,2 -1,2 -1,2 -1,10 -3,12l0 0c0,0 -1,0 -1,0l0 8c-1,4 0,-1 0,1 -1,3 0,2 -1,4 -3,6 -2,7 -2,12l-1 7c-2,2 -2,2 -2,3 0,3 0,7 -1,9 0,2 0,2 0,4 -3,0 -1,0 -3,2 0,2 -1,2 -2,4l-4 2c0,0 0,2 0,2l-6 0c0,1 0,-2 2,0 0,1 0,0 0,1 -4,0 -10,-1 -13,-3 0,0 0,0 0,-1l-4 -3c-1,-1 -1,-2 -2,-4 -2,-4 -2,-8 0,-10 0,-3 1,-3 1,-7 0,-1 0,-6 0,-7l1 -4c0,-4 2,-4 2,-8 0,-3 0,-5 0,-8 1,-3 0,3 1,-3 3,-8 -1,-4 4,-13l0 0c0,-3 0,-6 0,-7 0,-4 3,-3 4,-12 0,-3 0,-3 2,-6 0,0 0,-1 0,-1 1,-1 0,0 1,-1 0,-2 0,-3 0,-4 0,-3 3,-3 3,-7 0,-4 0,-5 2,-8 0,-10 3,-7 4,-10 0,-2 -1,-4 0,-5 2,-4 2,0 3,-3 0,-6 1,-4 3,-8 0,-2 0,-4 1,-5 1,-2 1,-3 3,-6 0,-2 1,-1 1,-2 2,-3 0,-3 4,-8l6 -14c1,-3 2,-3 4,-7l1 -4c1,-1 4,-4 4,-5 0,-1 0,-1 0,-3 1,0 1,0 1,0 0,0 0,0 0,0l2 -1c0,0 0,-1 1,-4 1,-1 1,-4 3,-5 3,-2 1,0 3,-3 0,-2 1,-3 2,-4 0,0 0,0 0,0l4 -7c0,0 0,0 0,0l3 -4c1,-1 -1,1 1,0l4 -5c0,-2 0,-3 2,-3l5 -5c0,0 0,-2 0,-2l1 -1c3,-3 5,-6 6,-8l4 -3c1,-1 0,-1 1,-3 2,0 2,-1 2,-1 2,-1 0,3 1,0 0,-1 -1,1 0,-1l5 -6c0,0 0,0 0,0l6 -5c0,0 0,0 0,0l2 -3c2,-1 0,0 2,-1l8 -7c1,-1 0,0 1,-1l12 -10c0,0 0,-1 2,-1l16 -12c1,0 0,0 1,0 2,-2 2,0 2,-2 1,-1 1,-1 2,-2 3,0 4,-2 6,-3 2,0 4,-1 5,-3 10,0 5,-2 11,0 1,0 3,0 4,0l1 2c3,2 2,1 4,4 0,0 2,0 2,0 0,0 0,0 0,0 0,0 0,0 0,1 2,1 2,5 2,8l0 0zm-206 306l220 0 -3 -2c0,-2 0,-2 -1,-2l-3 -5c0,0 0,0 0,0 0,0 -1,0 -1,0l-7 -10c-1,0 -1,-1 -1,-1l-12 -12c0,-1 0,-1 0,-1 0,0 0,0 0,0 0,0 0,0 0,0l-15 -18c-2,-1 -2,-3 -3,-4 -1,0 -1,0 -1,0l-2 -3c0,0 -1,-1 -2,-1l-3 -6c-1,-1 -1,-1 -3,-2l-16 -20c0,0 0,0 0,0l-3 -2c-1,-2 -1,-2 -2,-4 0,0 0,0 0,0l-6 -7c0,0 0,0 -1,-1l0 0c0,0 0,-1 0,-1l-1 0c0,0 0,0 0,0l-2 -2c0,-2 0,-1 -1,-4 -1,-1 0,0 -1,-1l-2 -1c0,0 0,0 0,0l-4 -7c-1,-4 1,-3 -3,-7 -1,-1 -1,-5 -2,-8l0 -1c-2,-2 -2,-2 -2,-4 -1,-4 0,-22 0,-27 0,-3 2,-4 3,-8l0 -6c3,-1 1,0 3,-1 1,-3 0,-6 1,-7 1,-4 0,0 3,-4 1,-1 0,0 0,0 1,-1 1,-1 2,-3 2,-2 0,-1 2,-2l1 -4c2,0 2,0 2,0 0,0 0,-2 1,-2 0,0 0,0 0,0l5 -5c0,0 0,0 0,0l4 -4c0,0 0,0 0,0l12 -11c0,0 0,0 0,0l9 -7c0,0 1,-1 1,-1l21 -16c2,0 2,0 2,0l1 0c0,-2 0,-2 0,-2l8 -2c3,-3 6,-2 8,-3 6,-3 14,-3 21,-3 4,0 8,0 12,2l4 0c2,1 0,1 2,1 2,1 2,0 5,1l9 4c0,0 1,2 1,2l3 1c1,0 1,0 1,0l8 6 14 13c1,1 0,1 1,3l8 8c3,4 4,5 7,8 2,3 4,5 7,8l15 18c0,0 0,0 0,0l9 10c0,0 0,2 0,2l7 6c0,2 1,2 1,2l12 15c0,0 0,1 0,1 0,0 0,0 0,0 0,0 2,0 2,0l17 21c0,0 2,0 2,0l1 5c0,0 0,0 0,0l7 8c0,0 0,0 0,0l1 1c1,1 0,0 1,3 2,0 2,0 3,1l8 8c3,4 3,6 7,10l0 0c1,2 1,1 3,2 1,3 0,2 1,3l0 -14c0,0 -1,2 -1,-1l-2 -38c0,2 0,-1 0,-2l0 -12c0,-4 0,-4 -1,-7 -1,-3 0,-10 -1,-14l0 -6c0,-2 0,-4 -2,-6 -1,-2 -1,-2 -1,-7 0,-12 -3,-12 -3,-18 0,-11 -3,-11 -3,-14 -1,-1 0,-3 -1,-4l-1 -8c-2,-3 -2,-7 -3,-9 0,-3 -1,-2 -1,-6l-3 -11c-1,-1 -3,-4 -3,-5l-2 -5c-2,-3 1,-2 -6,-14l-6 -11c-2,-2 0,-1 -2,-2 -1,-2 -1,-2 -1,-2 -2,-1 0,-1 -2,-2l0 0c-1,-2 -1,-2 -1,-2 -1,-1 -1,-1 -3,-1l-5 -6c0,-1 1,0 -1,-1 -4,-1 -3,0 -4,-3 -6,0 -10,0 -14,-1 -4,0 -9,0 -15,0 -4,0 -2,-1 -5,-1 -1,-2 -4,0 -7,-2 -9,0 -9,-1 -11,-2 -2,0 -5,1 -8,0 -1,0 -4,-3 -6,-3 0,0 -2,0 -3,0l-1 0c-2,-1 -2,-1 -2,-1l-3 -2c-2,-1 -4,0 -6,-1 -3,-1 -4,-1 -7,-1 0,0 0,0 0,0 -3,-2 -3,-3 -5,-3 -2,0 -3,-2 -3,-2l-1 -1c-3,-1 -5,-1 -6,-3 -3,-1 -4,0 -7,-2 -2,-2 -4,-2 -5,-3 -3,-1 0,-1 -3,-1l-4 -3c0,0 2,0 -1,0l-7 -4c-1,-1 -1,-1 -3,-3 -1,-1 -1,0 -2,-1 -3,-1 0,-1 -3,-1l-3 -3c0,0 0,-1 0,-1l-6 -3c-2,-2 -4,0 -6,1l-1 0c-1,2 -1,2 -3,2 -1,1 -1,1 -2,2l-2 2c-3,0 -1,0 -3,1l-4 3c0,0 0,0 -1,1l-5 3c0,1 0,1 0,1 -2,0 0,0 -2,0l-10 9c-3,2 -3,2 -5,3l-21 19c0,1 -1,1 -1,3 0,0 0,0 -2,0l-17 19c-2,1 -2,1 -2,2l-4 4c0,0 0,0 0,0 0,2 0,2 -1,2l-22 28c0,0 0,1 0,1 -2,3 -5,7 -6,10 0,1 0,1 0,1 -2,3 -2,1 -3,3 0,1 0,1 -1,3 0,1 0,0 -2,1l-2 4c-2,1 0,0 -2,3 -3,5 -3,4 -5,10l-3 4c0,2 0,2 0,3l-3 2c0,1 0,2 0,4 -1,1 -2,1 -2,2 0,2 0,3 -2,4 0,0 -1,2 -1,2 -1,1 -1,1 -1,2 0,3 0,2 -2,3 -1,1 0,3 -1,4 -1,3 -3,3 -3,4 -1,4 -2,7 -4,11 0,1 -1,3 -1,3 0,0 0,0 0,1l-2 1c-1,4 -1,3 -2,8 -2,3 -3,3 -3,4 0,3 -1,6 -3,9 -1,1 0,0 -1,2l-3 10c0,2 -1,4 -1,5 -1,1 -1,5 -4,10 0,2 0,4 0,6 -1,0 0,2 -1,0 -2,-1 1,-1 0,0 0,4 -2,3 -2,6 0,5 -1,4 -2,8 0,1 0,0 0,2 -2,3 0,3 -2,9 -2,5 0,5 -4,12 0,0 -1,2 -1,2 0,3 0,6 0,8 -2,3 -3,6 -3,7 0,3 0,7 0,10 0,1 0,1 -1,2 0,6 -2,6 -2,11 0,4 -1,8 -2,12 -2,3 -2,8 -2,12l0 13c-1,1 -1,0 -1,2l0 0z"/>
   <path class="fil0" d="M438 3c0,0 4,0 0,0 -4,0 -9,0 -13,0 -2,0 -3,0 -4,0 -3,1 -2,1 -6,2 -2,0 -1,0 -2,0 -4,2 -11,0 -15,2 -4,0 -3,1 -6,1 -1,0 -2,0 -4,0 -2,0 -1,1 -4,1 -4,0 -9,-1 -13,0 -4,0 0,0 -3,2 -1,0 -3,0 -4,0 -3,1 -1,1 -4,1 -3,0 -7,0 -8,0 -15,0 -4,2 -12,3 0,0 -1,0 -1,0 -5,0 0,0 -11,0 -4,0 -8,0 -10,1l-2 2c-4,0 -4,0 -7,1 -6,0 -12,-1 -16,0l-10 3c-2,0 -12,0 -15,0l0 0c-9,4 -18,1 -24,2 -3,2 -1,0 -1,2 -3,0 -8,1 -14,1 -2,0 -5,0 -8,0 -3,1 -3,1 -4,1l-4 2c0,0 0,0 0,0 -3,0 -5,1 -8,1l-11 0c-4,0 -8,3 -11,3 -8,1 -12,-2 -20,1 -1,2 -1,2 -4,2 -3,1 -4,1 -5,2 -3,4 -2,14 -2,18 0,12 4,16 4,31 0,4 0,2 0,4 2,2 2,4 2,5 9,0 8,0 15,-1 5,-3 13,0 18,-2l3 -1c7,-3 3,-1 11,-1l12 -2c0,0 0,0 0,0 0,0 0,0 0,0 0,0 0,-1 0,-1 4,-1 10,0 14,0 5,0 6,-1 10,-3 3,-1 10,0 14,0 1,0 1,-1 4,-1 3,0 8,0 9,1 3,3 3,2 6,6l0 0c0,1 1,1 1,2 0,2 1,2 1,3 0,2 0,3 0,6 0,4 -1,4 -1,8 -1,0 -3,0 -3,2 -1,0 0,0 -2,2 -3,1 -3,2 -7,2 -12,2 -3,-1 -16,3 0,0 0,1 -2,1 -4,2 -10,-1 -14,0 -2,0 0,2 -3,2 0,0 -1,0 -1,0 -2,1 0,-2 0,0 0,0 0,0 0,1 -4,0 -19,0 -22,1l-3 2c-5,1 -12,0 -17,1 -2,0 0,0 -3,0 -4,2 -1,3 -11,3 -11,0 -9,-1 -9,4 0,4 0,4 1,7 2,2 0,4 0,6 2,2 2,2 2,7 0,2 0,4 0,7 2,0 2,-1 5,-1 11,1 5,0 11,-2 9,-1 12,0 16,-1 1,0 1,-2 3,-2 9,-2 10,0 16,-1 2,-1 0,0 1,-1 8,-3 14,0 20,-3l3 -1c5,-3 12,1 18,-3 0,0 0,0 0,0 0,0 0,0 0,0 1,0 1,0 1,0l1 0c4,-1 11,0 15,-1l4 -2c4,-2 11,0 15,-2l3 0c8,-4 15,-2 19,-3 0,0 0,0 1,0 0,-1 0,-1 0,-1 4,-3 9,0 15,-2l5 -1c4,-3 7,-1 12,-1 3,0 3,-2 7,-2 0,-1 0,2 0,0 -1,-1 -1,0 -1,-1 5,0 12,1 16,0l5 -3c4,0 10,1 14,-1 2,-2 0,0 4,0l0 -2c0,0 -2,0 1,0 3,0 7,0 11,0 4,0 1,0 4,-1 5,-3 11,-1 16,-1 3,-2 0,0 1,-2l5 -1c2,-1 0,0 2,-1 4,0 8,1 12,0 3,0 2,0 4,-2 2,0 3,-1 4,-1 3,0 10,0 13,0 1,-1 -2,0 1,-1l4 -2c1,0 1,0 3,0 -3,-4 -2,-7 -2,-11 0,-1 -1,-1 -1,-2 0,-3 1,-7 0,-10l-1 -6c0,0 -2,2 -2,-3 0,-15 -2,-26 -2,-35 0,-7 -2,-6 -2,-12 0,-3 -1,-2 -1,-6 0,-6 -2,0 -2,-12 0,-4 0,-7 -1,-9 -4,-6 -4,-3 -9,-7 -2,0 -6,0 -6,0 -2,1 -4,3 -8,3l0 0z"/>
   <path class="fil0" d="M445 829l205 0c0,-1 3,-1 4,-2l1 -2c0,0 0,0 0,-1l7 -6c0,0 1,0 1,0l7 -6c0,0 0,0 2,0l12 -11c0,0 0,0 0,0l20 -16c0,-2 0,0 1,-2l4 -4c2,-1 0,0 2,-1l5 -4c0,0 0,0 0,0l0 -1c1,0 1,0 1,0l18 -15c1,-2 1,-2 1,-2l6 -4c4,-4 9,-8 13,-13 0,-2 0,-2 0,-2 0,0 0,0 0,0 0,0 0,0 0,0 0,0 0,0 2,-1 0,-3 0,-4 1,-5l1 -3c2,-11 4,-8 3,-17 0,-5 -1,-2 -1,-6l-2 -7c-1,-1 -2,-6 -7,-12l-9 -11c-1,-2 -1,-1 -1,-2 0,0 0,0 0,0l-16 -19c-2,0 0,0 -2,-1 -1,-3 -4,-4 -7,-6l-4 -3c-4,-1 -2,-1 -6,-1l0 0c1,-1 1,0 2,-1 -6,0 0,-2 -16,-2l0 -1c0,0 -1,0 -3,0 -2,0 2,0 -5,1 -1,0 -1,0 -3,0 -1,0 -5,2 -8,2l0 1c0,0 0,0 0,0 -2,0 -1,0 -2,1 0,0 0,0 0,0l-18 13c-1,0 0,0 -1,0l-10 9c0,0 -1,0 -1,0l-5 5c-2,0 -2,0 -2,0l0 2c0,0 0,0 0,0l-8 5c0,2 0,2 0,2 -1,0 -1,0 -3,1l-2 3c0,0 0,0 0,0l-2 1c0,0 0,0 0,0l-4 4c0,0 -1,0 -1,0l-1 1c0,0 0,0 -2,2l-8 6c-1,2 -1,2 -3,2 0,1 0,1 0,1l-1 1c0,0 0,0 0,0l-1 2c-2,1 -2,0 -3,1l-7 6c0,1 0,1 -1,1l-10 8c0,0 0,0 0,0 0,0 0,0 0,0 -1,0 0,0 -1,0l-16 15c-1,1 -1,0 -3,1l-2 4c-3,3 -7,3 -9,6l-2 2c0,0 0,0 0,0l-7 6c0,0 0,1 0,1 0,0 -1,0 -1,0l0 0c-2,1 -2,1 -2,1l-35 30c-4,3 -8,5 -11,10 -1,1 0,0 -2,1 0,0 0,0 -2,1 -1,2 0,0 -1,2l-5 4c-2,1 -2,1 -2,1l-4 4c-1,0 0,0 -1,0l-4 4c0,0 0,0 0,0 0,0 0,0 0,0 -3,3 -6,5 -8,7 0,0 0,0 0,0 -2,1 0,0 -2,1l-8 6c-1,2 -4,2 -5,2l0 0z"/>
   <path class="fil0" d="M263 829l174 0c-3,-1 -3,0 -7,-2l-11 -13c0,0 0,0 0,0 0,0 0,0 0,0l-1 -2c-1,-2 -3,-4 -5,-6l-6 -6c0,0 0,0 0,0l0 -2c0,0 -1,0 -1,0 0,0 0,0 0,0l-4 -5c0,0 0,0 0,-2l-8 -8c-3,-2 -7,-8 -10,-12 0,0 0,0 0,0l-21 -24c0,0 0,0 0,0 0,0 0,0 0,-1l-43 -50c-2,-3 -4,-4 -4,-4 0,-3 -4,-6 -6,-7l-3 -4c-2,-5 -9,-10 -12,-15l-13 -16c-3,-3 -8,-8 -11,-12l-9 -11c0,0 0,0 0,-1 0,0 -2,0 -2,0l-2 -4c-3,-3 -4,-4 -7,-6l-4 -3c-4,-2 -4,0 -7,-4 -4,0 -9,-1 -15,-1 -7,0 -8,1 -16,1 -3,4 -1,2 -5,4l-10 6c-1,1 0,1 0,1l-2 2c-2,1 -2,1 -3,1l-3 3c0,1 0,1 0,1l-1 1c-2,0 -3,2 -4,3 1,1 5,7 8,9l9 13c2,1 0,0 2,1 0,0 0,0 0,0 0,0 0,0 0,0 1,4 8,8 9,12 0,0 0,0 0,0l5 7c3,3 6,5 7,8 2,1 2,1 3,4l4 4c3,4 5,7 8,11 0,0 0,0 0,0l23 28c1,1 1,1 1,1 4,7 4,6 10,13l11 13c0,0 0,0 0,0l27 34c0,0 0,0 0,0l2 2c0,0 0,2 0,2 0,4 2,4 0,5 0,3 0,0 0,2 0,1 0,2 -1,4l0 2c0,0 0,2 -2,2l-8 6c-6,2 -2,0 -8,0 -2,-1 -4,-1 -6,-2l0 -2c0,0 -2,0 -2,0l-11 -12c0,0 0,-1 0,-1l-6 -7c0,0 0,0 0,0l0 -1c-2,-2 0,0 -2,-2l-16 -20c0,0 -1,-1 -1,-1 -2,-3 -4,-4 -6,-7l-12 -16c-1,-1 0,0 -1,-1l-4 -6c-1,-1 -1,0 -1,-1l-7 -8c0,0 0,0 0,0l-3 -3c-1,-1 -1,-1 -3,-3l0 -1c-2,-3 -2,-3 -4,-4 -1,-1 0,0 -1,-1l-7 -10c-1,-1 0,0 -1,-1l-14 -18c0,0 -1,0 -1,-1l-20 -26c0,0 0,0 0,0l-3 -2c-3,-6 -3,-2 -3,0 -1,1 -4,4 -4,5l-2 11c0,2 0,7 0,9l1 8c1,2 -1,2 1,0 0,0 -1,0 0,0 0,4 2,7 3,10l1 1c0,0 0,0 0,0l4 6c0,0 0,0 0,0l34 40c2,1 2,1 2,3l24 27c0,1 0,1 0,1l3 1c1,2 0,2 1,3l12 15c0,0 0,0 0,0l8 9c0,0 1,2 1,2l2 1c0,0 0,0 0,0l9 12c2,1 7,7 7,8z"/>
   <path class="fil0" d="M688 554c5,3 -2,0 -4,3 0,0 0,0 0,0 -4,3 0,-1 -6,3 -1,1 0,1 -1,1l-7 5c0,0 0,0 0,0l-1 0c0,0 0,0 0,2 0,0 -2,0 -2,0l-8 6c0,0 0,0 0,0l-5 6c0,0 0,0 -1,0l-14 13c-3,2 -4,3 -5,4 -6,4 -10,8 -14,11l-20 18c0,0 0,1 0,1l-12 8c0,1 0,1 0,1 -1,2 -1,2 -3,2 0,0 0,0 0,0l-2 4c-3,1 -2,0 -3,1l-8 7c0,1 0,1 0,1l-10 7c-1,1 0,1 -2,3 -2,0 0,-2 -2,1l-17 15c0,0 -2,0 -2,1l-1 2c0,0 -1,1 -1,1l-8 7c0,0 0,0 -2,0l0 1c0,0 0,0 0,0 0,0 0,0 0,0l-11 10c-2,1 -5,4 -8,5 -1,3 -1,3 -2,4l-14 11c0,0 0,0 0,0l-13 11c-2,1 -3,4 -6,5 -1,1 -1,0 -2,1 0,2 0,2 -2,2 0,1 0,1 -1,1l-7 7c0,0 0,0 0,0 -1,0 -1,0 -1,1l-8 7c-2,0 0,0 -2,0 0,0 0,0 0,1 -4,2 -8,6 -10,10l0 16c0,4 0,1 -2,4 3,3 3,4 4,7l10 -9c0,0 0,0 0,0l2 -1c0,0 0,-1 0,-1 2,0 2,0 2,-2 1,0 1,0 1,0 0,0 1,0 1,-1l3 -3c0,0 0,0 0,0l3 -2c1,0 0,1 1,0l16 -14c0,0 0,-1 0,-1 2,0 2,0 3,-2l14 -10c0,0 0,0 0,-2 0,0 0,0 0,0l4 -2c1,-2 1,0 2,-2 2,-1 0,-1 2,-2 0,0 0,0 0,0l2 -3c0,0 0,0 0,0l10 -7c1,-1 1,-1 1,-1l5 -4c0,0 0,0 0,0l18 -15c0,0 0,0 0,0 0,0 0,-1 0,-1l9 -7c0,-2 0,0 0,0l5 -4c0,0 1,0 1,0l3 -3c0,0 0,0 0,0l6 -5c2,-3 -1,1 0,-2l6 -4c1,0 1,0 2,-1 0,0 0,0 0,0l3 -3c0,0 0,-1 0,-1l15 -11c0,0 0,0 0,0l27 -24c0,0 0,0 0,0l8 -6c0,0 0,0 0,-1l19 -15c0,0 0,0 1,0l6 -4c2,-2 5,-2 8,-4l8 -3c2,-2 4,-1 7,-2 1,0 1,0 1,0l0 0c1,0 3,0 4,0 4,0 4,-3 12,-2 4,0 4,2 7,2 1,0 5,0 7,0 0,0 0,0 -2,0 0,1 0,0 -1,1 13,0 4,0 16,3 1,0 3,1 4,3l15 8 9 9c0,0 0,0 0,0l11 12c1,2 0,0 1,2l3 4c1,0 1,1 1,1 3,-1 2,-1 3,-3 0,-1 0,-1 2,-1 0,-3 0,-1 0,-3 0,-1 0,0 1,-1 0,-6 1,-4 1,-7 0,-3 0,-20 0,-21 -1,-3 0,0 -1,-2 -1,-3 -1,-5 -3,-7l-27 -33c-1,-2 -2,-3 -4,-4l-4 -6c-1,0 -1,0 -1,0 0,0 -2,-1 -2,-1 -1,-1 -2,-3 -5,-4l-3 -1c-1,0 -2,0 -4,0 0,0 -1,0 2,-2 0,0 -2,0 -3,0l-1 0c-4,-3 0,-1 -13,-1 -1,0 -6,-2 -8,0 -2,0 -1,0 -2,1l-4 0 0 0z"/>
  </g>
 </g>
</svg>
